# xmcd
#
# Track frame offsets: 
#        150
#        11931
#        22663
#        32544
#        42068
#        52447
#        62538
#        73263
#        82966
#        93416
#        102748
#        113928
#        123903
#        134292
#        146795
#        156801
#        166551
#        177942
#        188376
#        198018
#        208827
#        221809
#        234293
#        245196
#        256717
#        266576
#
# Disc length: 3690 seconds
#
# Revision: 1
# Processed by: cddbd v1.5.2PL0 Copyright (c) Steve Scherf et al.
# Submitted via: ExactAudioCopy v1.1
#
DISCID=6d0e681a
DTITLE=Jean Shepard - 5 Classic Albums Plus_CD4
DYEAR=2015
DGENRE=Country
TTITLE0=It Scares Me Half To Death
TTITLE1=I Used To Love You
TTITLE2=You're Just The KInd Of Guy
TTITLE3=He's My Baby
TTITLE4=Secret Of Life
TTITLE5=I Want To Go Where Nobody Knows Me
TTITLE6=Just Another Girl
TTITLE7=Have Heart Will Love
TTITLE8=I'll Take The Blame
TTITLE9=Jeopardy
TTITLE10=Better Love Next Time
TTITLE11=Heartaches,Teardrops And Sorrow
TTITLE12=Sweetheart Don't Come Back
TTITLE13=The Mysteries Of Life
TTITLE14=The One You Slip Around With
TTITLE15=How Do I Tell It To A Child
TTITLE16=For The Childrens Sake
TTITLE17=Lonely Little World
TTITLE18=The Root Of All Evil (Is A Man)
TTITLE19=No One Knows
TTITLE20=I've Got To Talk To Mary
TTITLE21=The Biggest Cry
TTITLE22=Two Voices,Two Shadows.Two Faces
TTITLE23=Your Conscience Or Your Hear
TTITLE24=It's Never Too Late
TTITLE25=One Less Heartache
EXTD=
EXTT0=
EXTT1=
EXTT2=
EXTT3=
EXTT4=
EXTT5=
EXTT6=
EXTT7=
EXTT8=
EXTT9=
EXTT10=
EXTT11=
EXTT12=
EXTT13=
EXTT14=
EXTT15=
EXTT16=
EXTT17=
EXTT18=
EXTT19=
EXTT20=
EXTT21=
EXTT22=
EXTT23=
EXTT24=
EXTT25=
PLAYORDER=
